<svg height="1870" width="720" xmlns="http://www.w3.org/2000/svg">
<rect height="1870" fill="#555" width="720"></rect>
<text fill="#7f7" font-family="Courier New" font-size="12" xml:space="preserve">
<tspan x="10" y="26"></tspan>
<tspan x="10" y="42">&gt; npmdoc-async@0.0.4 test /home/travis/build/npmdoc/node-npmdoc-async</tspan>
<tspan x="10" y="58">&gt; (set -e; export PORT=$(utility2 shServerPortRandom); utility2 test test.js)</tspan>
<tspan x="10" y="74"></tspan>
<tspan x="10" y="90"></tspan>
<tspan x="10" y="106">[MODE_BUILD=npmTest] - 2017-04-07T19:14:44Z - npm-testing /home/travis/build/npmdoc/node-npmdoc-\</tspan>
<tspan x="10" y="122">async</tspan>
<tspan x="10" y="138"></tspan>
<tspan x="10" y="154"></tspan>
<tspan x="10" y="170">covering $ /home/travis/.nvm/versions/node/v6.10.2/bin/node /home/travis/build/npmdoc/node-npmdo\</tspan>
<tspan x="10" y="186">c-async/test.js</tspan>
<tspan x="10" y="202">merging file:///home/travis/build/npmdoc/node-npmdoc-async/tmp/build/test-report.json to test-re\</tspan>
<tspan x="10" y="218">port</tspan>
<tspan x="10" y="234">&gt; server listening on http-port 40162</tspan>
<tspan x="10" y="250">created apidoc file:///home/travis/build/npmdoc/node-npmdoc-async/tmp/build/apidoc.html</tspan>
<tspan x="10" y="266"></tspan>
<tspan x="10" y="282"></tspan>
<tspan x="10" y="298">browserTest - created electron entry-page /home/travis/build/npmdoc/node-npmdoc-async/tmp/electr\</tspan>
<tspan x="10" y="314">on.15b49d71bdb0.e0a7ab58d5c4c.html</tspan>
<tspan x="10" y="330"></tspan>
<tspan x="10" y="346">Xlib:  extension "RANDR" missing on display ":99.0".</tspan>
<tspan x="10" y="362">merging file:///home/travis/build/npmdoc/node-npmdoc-async/tmp/build/test-report.json to test-re\</tspan>
<tspan x="10" y="378">port</tspan>
<tspan x="10" y="394">Xlib:  extension "RANDR" missing on display ":99.0".</tspan>
<tspan x="10" y="410">[4786:0407/191446:WARNING:audio_manager.cc(314)] Multiple instances of AudioManager detected</tspan>
<tspan x="10" y="426">[4786:0407/191446:WARNING:audio_manager.cc(275)] Multiple instances of AudioManager detected</tspan>
<tspan x="10" y="442">[4808:0407/191446:ERROR:sandbox_linux.cc(343)] InitializeSandbox() called with multiple threads \</tspan>
<tspan x="10" y="458">in process gpu-process. </tspan>
<tspan x="10" y="474">[node test-case 1 of 6 passed] - testCase_buildLib_default</tspan>
<tspan x="10" y="490">[node test-case 2 of 6 passed] - testCase_buildReadme_default</tspan>
<tspan x="10" y="506">[node test-case 3 of 6 passed] - testCase_buildTest_default</tspan>
<tspan x="10" y="522"></tspan>
<tspan x="10" y="538">browserTest - created electron entry-page /home/travis/build/npmdoc/node-npmdoc-async/tmp/electr\</tspan>
<tspan x="10" y="554">on.15b49d71f6c0.8db326fb0fd5d.html</tspan>
<tspan x="10" y="570"></tspan>
<tspan x="10" y="586"></tspan>
<tspan x="10" y="602">browserTest - opened url /home/travis/build/npmdoc/node-npmdoc-async/tmp/build/apidoc.html</tspan>
<tspan x="10" y="618"></tspan>
<tspan x="10" y="634">Xlib:  extension "RANDR" missing on display ":99.0".</tspan>
<tspan x="10" y="650">&gt; server listening on http-port 37203</tspan>
<tspan x="10" y="666">merging file:///home/travis/build/npmdoc/node-npmdoc-async/tmp/build/test-report.json to test-re\</tspan>
<tspan x="10" y="682">port</tspan>
<tspan x="10" y="698">Xlib:  extension "RANDR" missing on display ":99.0".</tspan>
<tspan x="10" y="714">[4845:0407/191447:WARNING:audio_manager.cc(314)] Multiple instances of AudioManager detected</tspan>
<tspan x="10" y="730">[4845:0407/191447:WARNING:audio_manager.cc(275)] Multiple instances of AudioManager detected</tspan>
<tspan x="10" y="746">[4878:0407/191447:ERROR:sandbox_linux.cc(343)] InitializeSandbox() called with multiple threads \</tspan>
<tspan x="10" y="762">in process gpu-process. </tspan>
<tspan x="10" y="778">[4845:0407/191447:ERROR:browser_gpu_channel_host_factory.cc(131)] Failed to create channel.</tspan>
<tspan x="10" y="794"></tspan>
<tspan x="10" y="810">browserTest - opened url http://127.0.0.1:40162?modeTest=1</tspan>
<tspan x="10" y="826"></tspan>
<tspan x="10" y="842">[4845:0407/191449:INFO:CONSOLE(249)] "----------|-----------|-----------|-----------|-----------\</tspan>
<tspan x="10" y="858">|</tspan>
<tspan x="10" y="874">File      |   % Stmts |% Branches |   % Funcs |   % Lines |</tspan>
<tspan x="10" y="890">----------|-----------|-----------|-----------|-----------|</tspan>
<tspan x="10" y="906">----------|-----------|-----------|-----------|-----------|</tspan>
<tspan x="10" y="922">All files |       100 |       100 |       100 |       100 |</tspan>
<tspan x="10" y="938">----------|-----------|-----------|-----------|-----------|</tspan>
<tspan x="10" y="954">", source: file:///home/travis/build/npmdoc/node-npmdoc-async/tmp/electron.15b49d71f6c0.8db326fb\</tspan>
<tspan x="10" y="970">0fd5d.html (249)</tspan>
<tspan x="10" y="986">[4845:0407/191449:INFO:CONSOLE(249)] "created coverage file:///tmp/build/coverage.html/index.htm\</tspan>
<tspan x="10" y="1002">l", source: file:///home/travis/build/npmdoc/node-npmdoc-async/tmp/electron.15b49d71f6c0.8db326f\</tspan>
<tspan x="10" y="1018">b0fd5d.html (249)</tspan>
<tspan x="10" y="1034">[node test-case 4 of 6 passed] - testCase_buildApp_default</tspan>
<tspan x="10" y="1050"></tspan>
<tspan x="10" y="1066">browserTest - exit-code 1 - /home/travis/build/npmdoc/node-npmdoc-async/tmp/build/apidoc.html</tspan>
<tspan x="10" y="1082"></tspan>
<tspan x="10" y="1098">[node test-case 5 of 6 passed] - testCase_buildApidoc_default</tspan>
<tspan x="10" y="1114"></tspan>
<tspan x="10" y="1130">browserTest - created screenCapture file:///home/travis/build/npmdoc/node-npmdoc-async/tmp/build\</tspan>
<tspan x="10" y="1146">/screenCapture.%2F.png</tspan>
<tspan x="10" y="1162"></tspan>
<tspan x="10" y="1178">browserTest - created screenCapture file:///home/travis/build/npmdoc/node-npmdoc-async/tmp/build\</tspan>
<tspan x="10" y="1194">/screenCapture.%2F.html</tspan>
<tspan x="10" y="1210"></tspan>
<tspan x="10" y="1226">browserTest - exit-code 0 - http://127.0.0.1:40162?modeTest=1</tspan>
<tspan x="10" y="1242"></tspan>
<tspan x="10" y="1258"></tspan>
<tspan x="10" y="1274">browserTest - merged coverage from /home/travis/build/npmdoc/node-npmdoc-async/tmp/coverage.%2F.\</tspan>
<tspan x="10" y="1290">json</tspan>
<tspan x="10" y="1306"></tspan>
<tspan x="10" y="1322"></tspan>
<tspan x="10" y="1338">browserTest - merging test-report from /home/travis/build/npmdoc/node-npmdoc-async/tmp/test-repo\</tspan>
<tspan x="10" y="1354">rt.%2F.json</tspan>
<tspan x="10" y="1370"></tspan>
<tspan x="10" y="1386">[node test-case 6 of 6 passed] - testCase_webpage_default</tspan>
<tspan x="10" y="1402">--------------------------|-----------|-----------|-----------|-----------|</tspan>
<tspan x="10" y="1418">File                      |   % Stmts |% Branches |   % Funcs |   % Lines |</tspan>
<tspan x="10" y="1434">--------------------------|-----------|-----------|-----------|-----------|</tspan>
<tspan x="10" y="1450">   node-npmdoc-async/     |       100 |       100 |       100 |       100 |</tspan>
<tspan x="10" y="1466">      example.js          |       100 |       100 |       100 |       100 |</tspan>
<tspan x="10" y="1482">      lib.npmdoc_async.js |       100 |       100 |       100 |       100 |</tspan>
<tspan x="10" y="1498">      test.js             |       100 |       100 |       100 |       100 |</tspan>
<tspan x="10" y="1514">--------------------------|-----------|-----------|-----------|-----------|</tspan>
<tspan x="10" y="1530">All files                 |       100 |       100 |       100 |       100 |</tspan>
<tspan x="10" y="1546">--------------------------|-----------|-----------|-----------|-----------|</tspan>
<tspan x="10" y="1562"></tspan>
<tspan x="10" y="1578">created coverage file:///home/travis/build/npmdoc/node-npmdoc-async/tmp/build/coverage.html/inde\</tspan>
<tspan x="10" y="1594">x.html</tspan>
<tspan x="10" y="1610">merging file:///home/travis/build/npmdoc/node-npmdoc-async/tmp/build/test-report.json to test-re\</tspan>
<tspan x="10" y="1626">port</tspan>
<tspan x="10" y="1642"></tspan>
<tspan x="10" y="1658">-------------------------------------------------------</tspan>
<tspan x="10" y="1674">| test-report - buildNpmdoc - node - linux v6.10.2 - 2017-04-07T19:14:23.274Z</tspan>
<tspan x="10" y="1690">|   38446 ms            0 failed        6 passed      |</tspan>
<tspan x="10" y="1706">-------------------------------------------------------</tspan>
<tspan x="10" y="1722"></tspan>
<tspan x="10" y="1738">created test-report file:///home/travis/build/npmdoc/node-npmdoc-async/tmp/build/test-report.htm\</tspan>
<tspan x="10" y="1754">l</tspan>
<tspan x="10" y="1770"></tspan>
<tspan x="10" y="1786"></tspan>
<tspan x="10" y="1802">npmTest - 0 failed tests</tspan>
<tspan x="10" y="1818"></tspan>
<tspan x="10" y="1834"></tspan>
<tspan x="10" y="1850">[MODE_BUILD=npmTest] - 2017-04-07T19:15:04Z - EXIT_CODE - 0</tspan>
</text>
</svg>
